<svg width="13" height="13" viewBox="0 0 13 13" fill="none" xmlns="http://www.w3.org/2000/svg">
<path d="M5.18764 12.1126C4.61702 12.6817 3.84402 13.0013 3.03814 13.0013C2.23226 13.0013 1.45926 12.6817 0.888638 12.1126C0.319569 11.542 0 10.769 0 9.96314C0 9.15726 0.319569 8.38426 0.888638 7.81364L3.27664 5.42564C3.84726 4.85657 4.62026 4.537 5.42614 4.537C6.23202 4.537 7.00502 4.85657 7.57564 5.42564C7.62304 5.47265 7.66069 5.52855 7.68643 5.59015C7.71217 5.65175 7.7255 5.71782 7.72564 5.78458C7.72578 5.85134 7.71273 5.91747 7.68725 5.97917C7.66176 6.04087 7.62435 6.09694 7.57714 6.14414C7.52994 6.19135 7.47387 6.22876 7.41217 6.25425C7.35046 6.27973 7.28434 6.29278 7.21758 6.29264C7.15082 6.2925 7.08474 6.27917 7.02315 6.25343C6.96155 6.22769 6.90565 6.19004 6.85864 6.14264C6.05864 5.34264 4.79364 5.34264 3.99364 6.14264L1.60564 8.53064C0.805638 9.33064 0.805638 10.5956 1.60564 11.3956C2.40564 12.1956 3.67064 12.1956 4.47064 11.3956L6.73964 9.12764C6.78567 9.07645 6.84164 9.03517 6.90415 9.00632C6.96665 8.97747 7.03438 8.96165 7.10319 8.95983C7.17201 8.958 7.24048 8.97022 7.30442 8.99572C7.36837 9.02121 7.42645 9.05947 7.47513 9.10815C7.52381 9.15683 7.56206 9.21491 7.58756 9.27885C7.61306 9.3428 7.62527 9.41127 7.62345 9.48008C7.62162 9.5489 7.6058 9.61662 7.57695 9.67913C7.5481 9.74163 7.50683 9.79761 7.45564 9.84364L5.18764 12.1126ZM9.72464 7.57564C9.15402 8.14471 8.38102 8.46428 7.57514 8.46428C6.76925 8.46428 5.99626 8.14471 5.42564 7.57564C5.33056 7.48056 5.27714 7.3516 5.27714 7.21714C5.27714 7.08267 5.33056 6.95372 5.42564 6.85864C5.52072 6.76356 5.64967 6.71014 5.78414 6.71014C5.9186 6.71014 6.04756 6.76356 6.14264 6.85864C6.94264 7.65864 8.20764 7.65864 9.00764 6.85864L11.3956 4.47064C12.1956 3.67064 12.1956 2.40564 11.3956 1.60564C10.5956 0.805638 9.33064 0.805638 8.53064 1.60564L6.26164 3.87364C6.21561 3.92483 6.15963 3.9661 6.09713 3.99495C6.03462 4.0238 5.9669 4.03962 5.89808 4.04145C5.82926 4.04327 5.7608 4.03106 5.69685 4.00556C5.63291 3.98006 5.57483 3.94181 5.52615 3.89313C5.47747 3.84445 5.43922 3.78637 5.41372 3.72242C5.38822 3.65848 5.37601 3.59001 5.37783 3.52119C5.37965 3.45238 5.39547 3.38465 5.42432 3.32215C5.45317 3.25964 5.49445 3.20367 5.54564 3.15764L7.81364 0.888638C8.38426 0.319569 9.15726 0 9.96314 0C10.769 0 11.542 0.319569 12.1126 0.888638C12.6817 1.45926 13.0013 2.23226 13.0013 3.03814C13.0013 3.84402 12.6817 4.61702 12.1126 5.18764L9.72464 7.57564Z" fill="black"/>
</svg>
