<svg width="12" height="10" viewBox="0 0 12 10" fill="none" xmlns="http://www.w3.org/2000/svg">
<path d="M10.608 2.49056C10.616 2.59856 10.616 2.70656 10.616 2.81656C10.616 6.15256 8.176 10.0006 3.716 10.0006V9.99856C2.39243 9.99845 1.09884 9.60438 0 8.86656C0.192 8.89056 0.384 8.90256 0.577 8.90356C1.67576 8.9019 2.73992 8.51915 3.588 7.82056C2.551 7.80056 1.641 7.09556 1.323 6.06656C1.687 6.13956 2.061 6.12456 2.418 6.02356C1.287 5.78556 0.473 4.75056 0.473 3.54856V3.51656C0.81 3.71156 1.187 3.82056 1.573 3.83256C0.508 3.09056 0.18 1.61456 0.823 0.461556C2.054 2.03856 3.87 2.99756 5.82 3.09856C5.72303 2.67005 5.73648 2.22394 5.85909 1.80205C5.9817 1.38017 6.20946 0.996334 6.521 0.686556C6.74898 0.459981 7.02084 0.282364 7.31992 0.164598C7.61899 0.0468326 7.93896 -0.00859937 8.26022 0.00170034C8.58148 0.012 8.89724 0.0878148 9.18816 0.224496C9.47907 0.361177 9.739 0.555842 9.952 0.796555C10.4973 0.684058 11.0186 0.476566 11.492 0.183556C11.3157 0.761756 10.9374 1.25726 10.426 1.57956C10.906 1.52056 11.376 1.38656 11.818 1.18256C11.493 1.69056 11.083 2.13356 10.608 2.49056Z" fill="black"/>
</svg>
