<svg width="20" height="20" viewBox="0 0 20 20" fill="none" xmlns="http://www.w3.org/2000/svg">
<mask id="mask0_10_220" style="mask-type:alpha" maskUnits="userSpaceOnUse" x="0" y="0" width="20" height="20">
<rect width="20" height="20" fill="#D9D9D9"/>
</mask>
<g mask="url(#mask0_10_220)">
<path d="M12.7917 13.5417L13.8542 12.4792L10.75 9.375V5H9.25V10L12.7917 13.5417ZM10 18C8.89756 18 7.86153 17.7917 6.89192 17.375C5.92231 16.9583 5.07292 16.3854 4.34375 15.6562C3.61458 14.9271 3.04167 14.0767 2.625 13.105C2.20833 12.1334 2 11.0952 2 9.99046C2 8.88571 2.20833 7.84722 2.625 6.875C3.04167 5.90278 3.61458 5.05556 4.34375 4.33333C5.07292 3.61111 5.92332 3.04167 6.89496 2.625C7.86661 2.20833 8.90481 2 10.0095 2C11.1143 2 12.1528 2.21 13.1251 2.63C14.0974 3.05 14.9432 3.62 15.6625 4.34C16.3817 5.06 16.9511 5.90667 17.3707 6.88C17.7902 7.85333 18 8.89333 18 10C18 11.1024 17.7917 12.1385 17.375 13.1081C16.9583 14.0777 16.3889 14.9271 15.6667 15.6562C14.9444 16.3854 14.0963 16.9583 13.1223 17.375C12.1482 17.7917 11.1075 18 10 18ZM10.0099 16.5C11.8082 16.5 13.3395 15.8646 14.6037 14.5938C15.8679 13.3229 16.5 11.7884 16.5 9.99006C16.5 8.19177 15.8679 6.66052 14.6037 5.39631C13.3395 4.1321 11.8082 3.5 10.0099 3.5C8.21165 3.5 6.67708 4.1321 5.40625 5.39631C4.13542 6.66052 3.5 8.19177 3.5 9.99006C3.5 11.7884 4.13542 13.3229 5.40625 14.5938C6.67708 15.8646 8.21165 16.5 10.0099 16.5Z" fill="black"/>
</g>
</svg>
