<svg width="14" height="16" viewBox="0 0 14 16" fill="none" xmlns="http://www.w3.org/2000/svg">
<path d="M7.00442 8C7.41814 8 7.77083 7.85269 8.0625 7.55808C8.35417 7.26346 8.5 6.90929 8.5 6.49558C8.5 6.08186 8.35269 5.72917 8.05808 5.4375C7.76346 5.14583 7.40929 5 6.99558 5C6.58186 5 6.22917 5.14731 5.9375 5.44192C5.64583 5.73654 5.5 6.09071 5.5 6.50442C5.5 6.91814 5.64731 7.27083 5.94192 7.5625C6.23654 7.85417 6.59071 8 7.00442 8ZM7 14.0208C8.65278 12.5347 9.89931 11.1667 10.7396 9.91667C11.5799 8.66667 12 7.54861 12 6.5625C12 5.10417 11.5243 3.89583 10.5729 2.9375C9.62153 1.97917 8.43056 1.5 7 1.5C5.56944 1.5 4.37847 1.97917 3.42708 2.9375C2.47569 3.89583 2 5.10417 2 6.5625C2 7.54861 2.42014 8.66667 3.26042 9.91667C4.10069 11.1667 5.34722 12.5347 7 14.0208ZM7 16C4.81979 14.1791 3.1914 12.4877 2.11483 10.926C1.03828 9.36421 0.5 7.90972 0.5 6.5625C0.5 4.70139 1.11806 3.14236 2.35417 1.88542C3.59028 0.628472 5.13542 0 6.98958 0C8.84375 0 10.3924 0.628472 11.6354 1.88542C12.8785 3.14236 13.5 4.70139 13.5 6.5625C13.5 7.90972 12.9653 9.36111 11.8958 10.9167C10.8264 12.4722 9.19444 14.1667 7 16Z" fill="#1A1A1A"/>
</svg>
